<svg version="1.1" xmlns="http://www.w3.org/2000/svg" xmlns:xlink="http://www.w3.org/1999/xlink" width="732" height="220"><defs/><g><g transform="translate(-86,-526) scale(1,1)"><rect fill="#C0C0C0" stroke="none" x="103" y="543" width="712" height="200" opacity="0.2"/></g><g transform="translate(-86,-526) scale(1,1)"><rect fill="#ffffff" stroke="none" x="96" y="536" width="712" height="200"/></g><g transform="translate(-86,-526) scale(1,1)"><path fill="none" stroke="#000000" d="M 96 536 L 808 536 L 808 736 L 96 736 L 96 536 Z Z" stroke-miterlimit="10"/></g><g transform="translate(-86,-526) scale(1,1)"><rect fill="#ffffff" stroke="none" x="96" y="536" width="712" height="200"/></g><g transform="translate(-86,-526) scale(1,1)"><path fill="none" stroke="#000000" d="M 96 536 L 808 536 L 808 736 L 96 736 L 96 536 Z Z" stroke-miterlimit="10"/></g><g transform="translate(-86,-526) scale(1,1)"><g><path fill="none" stroke="none"/><text fill="#000000" stroke="none" font-family="Arial" font-size="13px" font-style="normal" font-weight="bold" text-decoration="none" x="452" y="549"></text><path fill="none" stroke="#000000" d="M 452 555.5 L 452 555.5" stroke-miterlimit="10"/></g></g><g transform="translate(-86,-526) scale(1,1)"><path fill="#C0C0C0" stroke="none" d="M 119 609 L 304.6962890625 609 L 304.6962890625 642 L 119 642" opacity="0.2"/></g><g transform="translate(-86,-526) scale(1,1)"><path fill="#C0C0C0" stroke="none" d="M 119 609 L 129 599 L 314.6962890625 599 L 304.6962890625 609" opacity="0.2"/></g><g transform="translate(-86,-526) scale(1,1)"><path fill="#C0C0C0" stroke="none" d="M 314.6962890625 599 L 304.6962890625 609 L 304.6962890625 642 L 314.6962890625 632" opacity="0.2"/></g><g transform="translate(-86,-526) scale(1,1)"><path fill="#ffffff" stroke="none" d="M 112 602 L 297.6962890625 602 L 297.6962890625 635 L 112 635"/></g><g transform="translate(-86,-526) scale(1,1)"><path fill="#ffffff" stroke="none" d="M 112 602 L 122 592 L 307.6962890625 592 L 297.6962890625 602"/></g><g transform="translate(-86,-526) scale(1,1)"><path fill="#ffffff" stroke="none" d="M 307.6962890625 592 L 297.6962890625 602 L 297.6962890625 635 L 307.6962890625 625"/></g><g transform="translate(-86,-526) scale(1,1)"><path fill="none" stroke="#000000" d="M 112 602 L 297.6962890625 602 L 297.6962890625 635 L 112 635 L 112 602" stroke-miterlimit="10"/></g><g transform="translate(-86,-526) scale(1,1)"><path fill="none" stroke="#000000" d="M 112 602 L 122 592 L 307.6962890625 592 L 297.6962890625 602 L 112 602" stroke-miterlimit="10"/></g><g transform="translate(-86,-526) scale(1,1)"><path fill="none" stroke="#000000" d="M 307.6962890625 592 L 297.6962890625 602 L 297.6962890625 635 L 307.6962890625 625 L 307.6962890625 592" stroke-miterlimit="10"/></g><g transform="translate(-86,-526) scale(1,1)"><g><path fill="none" stroke="none"/><text fill="#000000" stroke="none" font-family="Arial" font-size="13px" font-style="normal" font-weight="bold" text-decoration="none" x="116.5" y="619.7099609375">Persistent Store Coordinator</text><path fill="none" stroke="#000000" d="M 294.1962890625 621.5 L 116.5 621.5" stroke-miterlimit="10"/></g></g><g transform="translate(-86,-526) scale(1,1)"><path fill="#C0C0C0" stroke="none" d="M 439 609 L 539.47265625 609 L 539.47265625 642 L 439 642" opacity="0.2"/></g><g transform="translate(-86,-526) scale(1,1)"><path fill="#C0C0C0" stroke="none" d="M 439 609 L 449 599 L 549.47265625 599 L 539.47265625 609" opacity="0.2"/></g><g transform="translate(-86,-526) scale(1,1)"><path fill="#C0C0C0" stroke="none" d="M 549.47265625 599 L 539.47265625 609 L 539.47265625 642 L 549.47265625 632" opacity="0.2"/></g><g transform="translate(-86,-526) scale(1,1)"><path fill="#ffffff" stroke="none" d="M 432 602 L 532.47265625 602 L 532.47265625 635 L 432 635"/></g><g transform="translate(-86,-526) scale(1,1)"><path fill="#ffffff" stroke="none" d="M 432 602 L 442 592 L 542.47265625 592 L 532.47265625 602"/></g><g transform="translate(-86,-526) scale(1,1)"><path fill="#ffffff" stroke="none" d="M 542.47265625 592 L 532.47265625 602 L 532.47265625 635 L 542.47265625 625"/></g><g transform="translate(-86,-526) scale(1,1)"><path fill="none" stroke="#000000" d="M 432 602 L 532.47265625 602 L 532.47265625 635 L 432 635 L 432 602" stroke-miterlimit="10"/></g><g transform="translate(-86,-526) scale(1,1)"><path fill="none" stroke="#000000" d="M 432 602 L 442 592 L 542.47265625 592 L 532.47265625 602 L 432 602" stroke-miterlimit="10"/></g><g transform="translate(-86,-526) scale(1,1)"><path fill="none" stroke="#000000" d="M 542.47265625 592 L 532.47265625 602 L 532.47265625 635 L 542.47265625 625 L 542.47265625 592" stroke-miterlimit="10"/></g><g transform="translate(-86,-526) scale(1,1)"><g><path fill="none" stroke="none"/><text fill="#000000" stroke="none" font-family="Arial" font-size="13px" font-style="normal" font-weight="bold" text-decoration="none" x="438.07421875" y="619.7099609375">Writer Context</text><path fill="none" stroke="#000000" d="M 527.3984375 621.5 L 438.07421875 621.5" stroke-miterlimit="10"/></g></g><g transform="translate(-86,-526) scale(1,1)"><path fill="#C0C0C0" stroke="none" d="M 679 609 L 779.47265625 609 L 779.47265625 642 L 679 642" opacity="0.2"/></g><g transform="translate(-86,-526) scale(1,1)"><path fill="#C0C0C0" stroke="none" d="M 679 609 L 689 599 L 789.47265625 599 L 779.47265625 609" opacity="0.2"/></g><g transform="translate(-86,-526) scale(1,1)"><path fill="#C0C0C0" stroke="none" d="M 789.47265625 599 L 779.47265625 609 L 779.47265625 642 L 789.47265625 632" opacity="0.2"/></g><g transform="translate(-86,-526) scale(1,1)"><path fill="#ffffff" stroke="none" d="M 672 602 L 772.47265625 602 L 772.47265625 635 L 672 635"/></g><g transform="translate(-86,-526) scale(1,1)"><path fill="#ffffff" stroke="none" d="M 672 602 L 682 592 L 782.47265625 592 L 772.47265625 602"/></g><g transform="translate(-86,-526) scale(1,1)"><path fill="#ffffff" stroke="none" d="M 782.47265625 592 L 772.47265625 602 L 772.47265625 635 L 782.47265625 625"/></g><g transform="translate(-86,-526) scale(1,1)"><path fill="none" stroke="#000000" d="M 672 602 L 772.47265625 602 L 772.47265625 635 L 672 635 L 672 602" stroke-miterlimit="10"/></g><g transform="translate(-86,-526) scale(1,1)"><path fill="none" stroke="#000000" d="M 672 602 L 682 592 L 782.47265625 592 L 772.47265625 602 L 672 602" stroke-miterlimit="10"/></g><g transform="translate(-86,-526) scale(1,1)"><path fill="none" stroke="#000000" d="M 782.47265625 592 L 772.47265625 602 L 772.47265625 635 L 782.47265625 625 L 782.47265625 592" stroke-miterlimit="10"/></g><g transform="translate(-86,-526) scale(1,1)"><g><path fill="none" stroke="none"/><text fill="#000000" stroke="none" font-family="Arial" font-size="13px" font-style="normal" font-weight="bold" text-decoration="none" x="690.236328125" y="619.53857421875">UI Context</text><path fill="none" stroke="#000000" d="M 755.236328125 621.5 L 690.236328125 621.5" stroke-miterlimit="10"/></g></g><g transform="translate(-86,-526) scale(1,1)"><path fill="none" stroke="#000000" d="M 544 614 L 671 614" stroke-miterlimit="10"/></g><g transform="translate(-86,-526) scale(1,1)"><path fill="none" stroke="#000000" d="M 660.8373251423759 618.209517756016 L 671 614 L 660.8373251423758 609.790482243984" stroke-miterlimit="10"/></g><g transform="translate(-86,-526) scale(1,1)"><g><path fill="none" stroke="none"/><text fill="#000000" stroke="none" font-family="Arial" font-size="13px" font-style="normal" font-weight="normal" text-decoration="none" x="558.5" y="603.7099609375">+Merge changes</text></g></g><g transform="translate(-86,-526) scale(1,1)"><path fill="none" stroke="#000000" d="M 310 606 L 384 600 L 431 606" stroke-miterlimit="10"/></g><g transform="translate(-86,-526) scale(1,1)"><path fill="none" stroke="#000000" d="M 420.3860777390088 608.8887115185902 L 431 606 L 421.4521960905795 600.5374510979531" stroke-miterlimit="10"/></g><g transform="translate(-86,-526) scale(1,1)"><g><path fill="none" stroke="none"/><text fill="#000000" stroke="none" font-family="Arial" font-size="13px" font-style="normal" font-weight="normal" text-decoration="none" x="327.5" y="588.7099609375">+Merge changes</text></g></g><g transform="translate(-86,-526) scale(1,1)"><path fill="#C0C0C0" stroke="none" d="M 407 697 L 573.18359375 697 L 573.18359375 730 L 407 730" opacity="0.2"/></g><g transform="translate(-86,-526) scale(1,1)"><path fill="#C0C0C0" stroke="none" d="M 407 697 L 417 687 L 583.18359375 687 L 573.18359375 697" opacity="0.2"/></g><g transform="translate(-86,-526) scale(1,1)"><path fill="#C0C0C0" stroke="none" d="M 583.18359375 687 L 573.18359375 697 L 573.18359375 730 L 583.18359375 720" opacity="0.2"/></g><g transform="translate(-86,-526) scale(1,1)"><path fill="#ffffff" stroke="none" d="M 400 690 L 566.18359375 690 L 566.18359375 723 L 400 723"/></g><g transform="translate(-86,-526) scale(1,1)"><path fill="#ffffff" stroke="none" d="M 400 690 L 410 680 L 576.18359375 680 L 566.18359375 690"/></g><g transform="translate(-86,-526) scale(1,1)"><path fill="#ffffff" stroke="none" d="M 576.18359375 680 L 566.18359375 690 L 566.18359375 723 L 576.18359375 713"/></g><g transform="translate(-86,-526) scale(1,1)"><path fill="none" stroke="#000000" d="M 400 690 L 566.18359375 690 L 566.18359375 723 L 400 723 L 400 690" stroke-miterlimit="10"/></g><g transform="translate(-86,-526) scale(1,1)"><path fill="none" stroke="#000000" d="M 400 690 L 410 680 L 576.18359375 680 L 566.18359375 690 L 400 690" stroke-miterlimit="10"/></g><g transform="translate(-86,-526) scale(1,1)"><path fill="none" stroke="#000000" d="M 576.18359375 680 L 566.18359375 690 L 566.18359375 723 L 576.18359375 713 L 576.18359375 680" stroke-miterlimit="10"/></g><g transform="translate(-86,-526) scale(1,1)"><g><path fill="none" stroke="none"/><text fill="#000000" stroke="none" font-family="Arial" font-size="13px" font-style="normal" font-weight="bold" text-decoration="none" x="404.5" y="707.7099609375">New Background Context</text><path fill="none" stroke="#000000" d="M 562.68359375 709.5 L 404.5 709.5" stroke-miterlimit="10"/></g></g><g transform="translate(-86,-526) scale(1,1)"><path fill="none" stroke="#000000" d="M 488 679 L 487 637" stroke-miterlimit="10"/></g><g transform="translate(-86,-526) scale(1,1)"><path fill="none" stroke="#000000" d="M 491.45022498208755 647.0595972885998 L 487 637 L 483.0335748038652 647.2599937214146" stroke-miterlimit="10"/></g><g transform="translate(-86,-526) scale(1,1)"><g><path fill="none" stroke="none"/><text fill="#000000" stroke="none" font-family="Arial" font-size="13px" font-style="normal" font-weight="normal" text-decoration="none" x="494.5" y="661.7099609375">+Commit changes</text></g></g><g transform="translate(-86,-526) scale(1,1)"><path fill="none" stroke="#000000" d="M 431 615 L 389 616 L 310 615" stroke-miterlimit="10"/></g><g transform="translate(-86,-526) scale(1,1)"><path fill="none" stroke="#000000" d="M 320.21514153548645 610.9194505994928 L 310 615 L 320.10858000258816 619.3378116984575" stroke-miterlimit="10"/></g><g transform="translate(-86,-526) scale(1,1)"><g><path fill="none" stroke="none"/><text fill="#000000" stroke="none" font-family="Arial" font-size="13px" font-style="normal" font-weight="normal" text-decoration="none" x="319.5" y="634.7099609375">+Commit changes</text></g></g></g></svg>